<?xml version="1.0" standalone="no"?><!DOCTYPE svg PUBLIC "-//W3C//DTD SVG 1.1//EN" "http://www.w3.org/Graphics/SVG/1.1/DTD/svg11.dtd"><svg t="1563877290068" class="icon" viewBox="0 0 1024 1024" version="1.1" xmlns="http://www.w3.org/2000/svg" p-id="2222" width="80" height="80" xmlns:xlink="http://www.w3.org/1999/xlink"><defs><style type="text/css"></style></defs><path d="M512 85.333333c-117.333333 0-213.333333 96-213.333333 213.333334v85.333333h85.333333v-85.333333c0-70.4 57.6-128 128-128s128 57.6 128 128v85.333333h85.333333v-85.333333c0-117.333333-96-213.333333-213.333333-213.333334z" fill="#424242" p-id="2223"></path><path d="M768 938.666667H256c-46.933333 0-85.333333-38.4-85.333333-85.333334V469.333333c0-46.933333 38.4-85.333333 85.333333-85.333333h512c46.933333 0 85.333333 38.4 85.333333 85.333333v384c0 46.933333-38.4 85.333333-85.333333 85.333334z" fill="#FB8C00" p-id="2224"></path><path d="M512 661.333333m-128 0a128 128 0 1 0 256 0 128 128 0 1 0-256 0Z" fill="#EFEBE9" p-id="2225"></path><path d="M512 661.333333m-64 0a64 64 0 1 0 128 0 64 64 0 1 0-128 0Z" fill="#1E88E5" p-id="2226"></path><path d="M554.666667 618.666667m-21.333334 0a21.333333 21.333333 0 1 0 42.666667 0 21.333333 21.333333 0 1 0-42.666667 0Z" fill="#FFFFFF" p-id="2227"></path></svg>